<?xml version="1.0"?>
<svg xmlns="http://www.w3.org/2000/svg" id="_x33_0" enable-background="new 0 0 64 64" height="512px" viewBox="0 0 64 64" width="512px"><g><g><circle cx="16" cy="17" r="1" data-original="#000000" class="active-path" data-old_color="#000000" fill="#F9F9F9"/><circle cx="22" cy="17" r="1" data-original="#000000" class="active-path" data-old_color="#000000" fill="#F9F9F9"/><path d="m22.789 20.658.105-.211-1.789-.895-.105.212c-.381.762-1.147 1.236-2 1.236s-1.619-.474-2-1.236l-.105-.211-1.789.895.105.211c.722 1.444 2.174 2.341 3.789 2.341s3.067-.897 3.789-2.342z" data-original="#000000" class="active-path" data-old_color="#000000" fill="#F9F9F9"/><path d="m39 19.234v-4.234h-2v7.766l6.515-3.909-1.03-1.714z" data-original="#000000" class="active-path" data-old_color="#000000" fill="#F9F9F9"/><path d="m58.846 29.246c-.048-.114-.071-.233-.103-.35 1.294-.333 2.257-1.499 2.257-2.896 0-1.654-1.346-3-3-3-.551 0-1-.449-1-1s.449-1 1-1h2c1.654 0 3-1.346 3-3s-1.346-3-3-3h-8c-.551 0-1-.449-1-1s.449-1 1-1h4c1.654 0 3-1.346 3-3s-1.346-3-3-3h-18c-2.552 0-5.018.757-7.124 2.14-.709-4.602-4.683-8.14-9.48-8.14h-11.567c-2.112 0-3.829 1.717-3.829 3.829 0 1.022.398 1.984 1.122 2.707l.311.311c-1.527 1.082-2.433 2.829-2.433 4.708 0 1.144.335 2.251.97 3.203l1.066 1.6c.184 2.035 1.881 3.642 3.964 3.642h.263c.519 2.007 1.796 3.708 3.511 4.78l-.422 1.688c-.098.392-.419.685-.818.746l-4.768.733c-4.5.693-7.766 4.5-7.766 9.053v12c0 3.86 3.14 7 7 7h5c0 3.309 2.691 6 6 6h26c3.309 0 6-2.691 6-6v-8.236c.98-.306 2.047-.06 2.779.672l1.12 1.12 5.657-5.657-1.12-1.12c-.794-.794-1.026-1.982-.57-3.075.428-1.035 1.429-1.704 2.55-1.704h1.584v-8h-1.584c-1.121 0-2.122-.669-2.57-1.754zm-1.846-19.246c0 .551-.449 1-1 1h-4c-1.654 0-3 1.346-3 3s1.346 3 3 3h8c.551 0 1 .449 1 1s-.449 1-1 1h-2c-1.654 0-3 1.346-3 3s1.346 3 3 3c.551 0 1 .449 1 1s-.449 1-1 1h-9.063c1.3-2.023 2.063-4.422 2.063-7v-1h-4v2h1.955c-.477 5.269-4.686 9.475-9.955 9.952v-1.952h-2v1.949c-5.27-.478-9.474-4.684-9.95-9.954 2.182-.028 3.95-1.807 3.95-3.995 0-.901-.31-1.724-.815-2.393l.322-.966c.224-.673.367-1.365.438-2.067 1.721-1.442 3.828-2.326 6.055-2.528v1.954h2v-2h17c.551 0 1 .449 1 1zm-4 25c0 1.973-.727 3.84-2 5.284v-1.284c0-.556-.228-1.058-.595-1.421.383-.8.595-1.671.595-2.579 0-2.604-1.67-4.819-3.993-5.647.12-.115.237-.233.352-.353h2.915c1.731 1.522 2.726 3.685 2.726 6zm-24 20v-16h2v16zm4-16h16v16h-16zm-8.534-10.786c-.399-.062-.72-.354-.818-.746l-.422-1.688c.901-.564 1.682-1.299 2.296-2.164.573 1.974 1.603 3.749 2.967 5.216zm2.534-13.214c1.103 0 2 .897 2 2s-.897 2-2 2zm11 18c.464 0 .922-.027 1.374-.074-.242.656-.374 1.355-.374 2.074 0 .692.123 1.364.348 2h-2.407c-.169-1.578-.73-3.038-1.598-4.275.858.179 1.746.275 2.657.275zm6.89-1.996c.037-.001.073-.004.11-.004 2.206 0 4 1.794 4 4 0 .714-.194 1.394-.546 2h-6.907c-.353-.606-.547-1.286-.547-2 0-.985.367-1.91 1.015-2.642 1.021-.332 1.982-.793 2.875-1.354zm-35.89-14.004c0-1.103.897-2 2-2v4c-1.103 0-2-.897-2-2zm2.101-4h-.101c-1.37 0-2.579.694-3.301 1.746l-.066-.099c-.414-.621-.633-1.345-.633-2.092 0-1.265.628-2.438 1.68-3.14l1.89-1.26-2.034-2.033c-.346-.346-.536-.805-.536-1.293 0-1.009.82-1.829 1.829-1.829h11.567c4.193 0 7.604 3.411 7.604 7.604 0 .819-.131 1.628-.39 2.404l-.098.293c-.467-.191-.977-.301-1.512-.301h-1-4.092c-1.603 0-2.908-1.305-2.908-2.908 0-.975.484-1.879 1.295-2.42l1.26-.84-1.109-1.664-1.26.84c-1.06.706-1.789 1.78-2.064 2.992h-1.122c-2.414 0-4.434 1.721-4.899 4zm1.899 6v-5c0-1.654 1.346-3 3-3h1.084c.427 2.274 2.428 4 4.824 4h3.092v4c0 3.309-2.691 6-6 6s-6-2.691-6-6zm6 8c.828 0 1.627-.127 2.379-.361l.329 1.314c.137.549.425 1.03.811 1.409-.87 1.032-2.15 1.638-3.519 1.638s-2.649-.606-3.519-1.638c.386-.379.674-.859.811-1.409l.329-1.314c.752.234 1.551.361 2.379.361zm-11 28c-2.757 0-5-2.243-5-5v-12c0-3.559 2.553-6.535 6.07-7.076l4.558-.701c1.239 1.738 3.227 2.777 5.372 2.777 2.144 0 4.132-1.038 5.372-2.777l4.558.701c3.181.489 5.567 2.973 5.995 6.076h-5.925c-1.103 0-2 .897-2 2v16h-2.556c.344-.591.556-1.268.556-2 0-2.206-1.794-4-4-4h-2c0-1.103-.897-2-2-2h-6v-9.162l-1.051-3.154-1.897.633.948 2.845v8.838h-4v2h12v6zm11-4h2c1.103 0 2 .897 2 2s-.897 2-2 2h-2zm0 10c-2.206 0-4-1.794-4-4h14c0 2.206-1.794 4-4 4zm26 0h-15.54c.954-1.063 1.54-2.462 1.54-4h18c0 2.206-1.794 4-4 4zm16-23.982c-1.762.152-3.299 1.269-4 2.965-.695 1.666-.4 3.546.741 4.903l-2.854 2.854c-1.08-.908-2.493-1.269-3.887-1.023v-3.741c2.506-1.887 4-4.82 4-7.977 0-2.198-.719-4.287-2.009-6h3.712c.063.353.167.705.315 1.059.685 1.657 2.22 2.771 3.982 2.923z" data-original="#000000" class="active-path" data-old_color="#000000" fill="#F9F9F9"/><path d="m54 43c-.256 0-.512.098-.707.293-.391.391-.391 1.024 0 1.414.195.195.451.293.707.293s.512-.098.707-.293c.391-.391.391-1.024 0-1.414-.195-.195-.451-.293-.707-.293z" data-original="#000000" class="active-path" data-old_color="#000000" fill="#F9F9F9"/><circle cx="58" cy="35" r="1" data-original="#000000" class="active-path" data-old_color="#000000" fill="#F9F9F9"/></g></g> </svg>
