<?xml version="1.0"?>
<svg xmlns="http://www.w3.org/2000/svg" xmlns:xlink="http://www.w3.org/1999/xlink" version="1.1" id="Capa_1" x="0px" y="0px" viewBox="0 0 512 512" style="enable-background:new 0 0 512 512;" xml:space="preserve" width="512px" height="512px"><g><g>
	<g>
		<path d="M256,0C114.508,0,0,114.497,0,256c0,141.493,114.497,256,256,256c141.492,0,256-114.497,256-256    C512,114.507,397.503,0,256,0z M256,30c29.82,0,58.755,5.746,85.551,16.697L328.587,66.7    c-12.323,19.016-14.656,42.929-6.241,63.966l2.201,5.503c10.917,27.297-8.879,57.382-38.621,57.695l-49.063,0.517    c-33.454,0.352-59.441,29.401-56.084,62.684l8.691,86.189c0.435,4.31-1.34,8.48-4.746,11.157c-5.621,4.415-13.802,3.292-18-2.559    L43.164,179.644C73.787,94.105,156.186,30,256,30z M315.976,473.993l-10.141-30.929c-9.042-27.578,11.567-55.962,40.545-55.962    h4.796c17.043,0,33.525-5.03,47.664-14.545l22.233-14.962c12.403-8.348,27.124-11.779,41.647-9.957    C436.102,407.628,382.793,455.723,315.976,473.993z M404.324,332.705l-22.233,14.962c-9.17,6.171-19.86,9.434-30.914,9.434h-4.796    c-49.391,0-84.437,48.387-69.051,95.309l9.038,27.563C276.381,481.307,266.245,482,256,482C131.09,482,30,380.922,30,256    c0-13.097,1.11-26.023,3.279-38.673L142.35,369.341c14.207,19.799,41.906,23.591,60.91,8.66    c11.527-9.058,17.531-23.173,16.06-37.758l-8.691-86.188c-1.59-15.779,10.654-29.507,26.552-29.675l49.063-0.517    c50.768-0.534,84.857-52.088,66.159-98.834l-2.201-5.503c-4.804-12.008-3.472-25.656,3.563-36.509l14.918-23.018    C435.587,98.608,482,171.044,482,256c0,21.609-3.028,42.75-8.854,62.954C449.36,314.144,424.736,318.968,404.324,332.705z" data-original="#000000" class="active-path" data-old_color="#000000" fill="#F9F9F9"/>
	</g>
</g><g>
	<g>
		<path d="M389.16,258.869l-10.039-11.421c-9.843-11.195-25.659-14.77-39.361-8.894l-61.676,26.455    c-24.295,10.419-27.937,43.417-7.937,59.434c6.176,4.946,13.703,7.553,21.423,7.553c2.515-0.001,5.053-0.278,7.57-0.841    l71.716-16.056C396.326,309.396,406.414,278.494,389.16,258.869z M364.3,285.823l-71.716,16.056    c-1.776,0.399-3.073-0.363-3.685-0.853c-2.354-1.886-2.453-6.963,1.009-8.447c66.55-28.545,62.123-26.811,63.402-26.811    c1.229,0,2.429,0.52,3.278,1.486l10.039,11.421C368.825,281.176,367.555,285.094,364.3,285.823z" data-original="#000000" class="active-path" data-old_color="#000000" fill="#F9F9F9"/>
	</g>
</g></g> </svg>
